<svg width="276" height="59" viewBox="0 0 276 59" fill="none" xmlns="http://www.w3.org/2000/svg">
<g filter="url(#filter0_d_118_2)">
<path fill-rule="evenodd" clip-rule="evenodd" d="M17.0041 41.2895C15.7397 41.844 14.2652 41.2686 13.7105 40.0042C13.1559 38.7398 13.7313 37.2652 14.9958 36.7106L16 39C14.9958 36.7106 14.9964 36.7103 14.9973 36.7099L15.0102 36.7042L15.0471 36.6882L15.1872 36.6274C15.3099 36.5744 15.4909 36.4967 15.7282 36.3959C16.2029 36.1942 16.9029 35.9001 17.8128 35.5269C19.6326 34.7804 22.2924 33.717 25.6683 32.4424C32.4191 29.8936 42.0395 26.4979 53.5371 23.1024C76.5041 16.3197 107.087 9.5 137.297 9.5C167.515 9.5 199.975 16.8188 223.976 23.7702C235.996 27.2517 245.937 30.6536 252.47 33.0281C255.736 34.2152 258.155 35.1472 259.562 35.706C260.248 35.9787 260.731 36.1774 260.947 36.2738C260.977 36.2872 261.019 36.3062 261.063 36.3276C261.074 36.333 261.09 36.3405 261.108 36.3499C261.125 36.3583 261.145 36.3683 261.165 36.3794L261.168 36.3805C261.189 36.3917 261.319 36.4606 261.466 36.5668C261.577 36.6525 261.921 36.9921 262.122 37.2705C262.484 38.3074 261.731 40.3961 260.709 40.9899C260.342 41.0692 259.819 41.0864 259.67 41.0711C259.593 41.0597 259.469 41.0363 259.422 41.0255C259.286 40.9937 259.173 40.9542 259.163 40.9509C259.04 40.9095 258.857 40.8393 258.662 40.7631C258.534 40.7132 258.413 40.6539 258.298 40.5863C258.136 40.5205 257.942 40.4425 257.715 40.3526C256.359 39.8136 253.986 38.8991 250.762 37.7273C244.314 35.3839 234.48 32.0182 222.585 28.5729C198.755 21.6709 166.821 14.5 137.297 14.5C107.764 14.5 77.6992 21.1803 54.9532 27.8976C43.5944 31.2521 34.0922 34.6064 27.4345 37.1201C24.1061 38.3767 21.4903 39.4227 19.7104 40.1528C18.8205 40.5178 18.1397 40.8039 17.6835 40.9977C17.4554 41.0946 17.2834 41.1685 17.1696 41.2177L17.0426 41.2727L17.0122 41.2859L17.0041 41.2895Z" fill="#00C7BB"/>
</g>
<defs>
<filter id="filter0_d_118_2" x="0.499359" y="0.5" width="274.715" height="58.0006" filterUnits="userSpaceOnUse" color-interpolation-filters="sRGB">
<feFlood flood-opacity="0" result="BackgroundImageFix"/>
<feColorMatrix in="SourceAlpha" type="matrix" values="0 0 0 0 0 0 0 0 0 0 0 0 0 0 0 0 0 0 127 0" result="hardAlpha"/>
<feOffset dy="4"/>
<feGaussianBlur stdDeviation="6.5"/>
<feComposite in2="hardAlpha" operator="out"/>
<feColorMatrix type="matrix" values="0 0 0 0 0 0 0 0 0 0.779167 0 0 0 0 0.732417 0 0 0 0.82 0"/>
<feBlend mode="normal" in2="BackgroundImageFix" result="effect1_dropShadow_118_2"/>
<feBlend mode="normal" in="SourceGraphic" in2="effect1_dropShadow_118_2" result="shape"/>
</filter>
</defs>
</svg>
